Coordinates
version=1
nRows=15
nColumns=46
inDegrees=yes

Units are S.I. units (second, meters, Newtons, ...)
Angles are in degrees.

endheader
time	pelvis_tilt	pelvis_list	pelvis_rotation	pelvis_tx	pelvis_ty	pelvis_tz	bb_angle	bb_tx	bb_ty	bb_tz	hip_flexion_r	hip_adduction_r	hip_rotation_r	knee_angle_r	knee_angle_r_beta	ankle_angle_r	subtalar_angle_r	mtp_angle_r	crank_angle_r	hip_flexion_l	hip_adduction_l	hip_rotation_l	knee_angle_l	knee_angle_l_beta	ankle_angle_l	subtalar_angle_l	mtp_angle_l	crank_angle_l	lumbar_extension	lumbar_bending	lumbar_rotation	arm_flex_r	arm_add_r	arm_rot_r	elbow_flex_r	pro_sup_r	wrist_flex_r	wrist_dev_r	arm_flex_l	arm_add_l	arm_rot_l	elbow_flex_l	pro_sup_l	wrist_flex_l	wrist_dev_l
      2.50000000	    -24.38001398	      0.60088512	      5.89061661	      0.35652024	      1.10697891	     -0.23932132	      0.00000000	      0.50000000	      0.00000000	      0.25000000	     37.07976287	     -7.67524774	     -2.76570530	     58.61026841	      1.02294216	     -5.83431272	     -6.16062290	      0.00000000	      0.00000000	     65.17145765	     -2.95391565	      1.10775656	     69.45283899	      1.21218072	     22.62940749	      5.10704488	      0.00000000	      0.00000000	    -52.46845909	    -10.29923185	     -0.60668698	     38.83613424	    -16.99645975	      1.50411015	     70.72438666	     48.66730608	      0.00000000	      0.00000000	     61.34190934	    -13.57905223	     35.07956037	     70.31862166	     47.94800329	      0.00000000	      0.00000000
      2.50500000	    -24.26037453	      0.03238489	      5.33306568	      0.35657020	      1.10645696	     -0.23998132	      0.00000000	      0.50000000	      0.00000000	      0.25000000	     37.87184100	     -7.00694650	     -2.63150494	     60.90721642	      1.06303146	     -4.64286875	     -6.66791263	      0.00000000	      0.00000000	     64.18514200	     -3.68614734	      1.12440710	     67.46798650	      1.17753850	     21.73799510	      5.15791719	      0.00000000	      0.00000000	    -52.35062838	    -10.01515773	     -0.03313781	     39.11111159	    -17.26572031	      1.77183242	     70.71564609	     48.70572238	      0.00000000	      0.00000000	     60.77398989	    -13.53095054	     34.78470217	     70.56255134	     47.96668550	      0.00000000	      0.00000000
      2.51000000	    -24.29810428	     -0.42369493	      4.58636303	      0.35636793	      1.10534343	     -0.24059592	      0.00000000	      0.50000000	      0.00000000	      0.25000000	     38.95647999	     -6.33804597	     -2.17139999	     63.36210899	      1.10587742	     -3.53801941	     -6.51223031	      0.00000000	      0.00000000	     63.35327702	     -4.50849610	      0.86998966	     65.54968913	      1.14405790	     20.80837997	      4.90893842	      0.00000000	      0.00000000	    -52.07621388	     -9.79796262	     -0.11087492	     40.13598335	    -17.82259911	      4.34381381	     69.83700452	     49.06019544	      0.00000000	      0.00000000	     58.94680058	    -13.79522705	     32.01865429	     72.69423927	     48.08166414	      0.00000000	      0.00000000
      2.51500000	    -24.12880536	     -0.94783932	      3.92881780	      0.35640282	      1.10432853	     -0.24101760	      0.00000000	      0.50000000	      0.00000000	      0.25000000	     39.76137779	     -5.59150238	     -1.84946794	     65.74853373	      1.14752839	     -2.49625598	     -6.68943959	      0.00000000	      0.00000000	     62.30471729	     -5.36997732	      0.68033005	     63.70910341	      1.11193362	     19.87004722	      4.98984455	      0.00000000	      0.00000000	    -51.97683375	     -9.61144251	      0.52219765	     40.41718180	    -17.95832106	      4.49753859	     69.81226124	     49.08882334	      0.00000000	      0.00000000	     58.48383014	    -13.74232197	     31.88475107	     72.84452869	     48.09996457	      0.00000000	      0.00000000
      2.52000000	    -23.96864395	     -1.35982264	      3.23931242	      0.35631504	      1.10315115	     -0.24140318	      0.00000000	      0.50000000	      0.00000000	      0.25000000	     40.63130088	     -4.92058888	     -1.38631739	     68.20892741	      1.19047036	     -1.33348376	     -6.64750924	      0.00000000	      0.00000000	     61.19096248	     -6.14819199	      0.40913565	     61.82648062	      1.07907565	     18.86103021	      4.93382406	      0.00000000	      0.00000000	    -51.84606267	     -9.50936806	      1.10671728	     40.66268264	    -18.19623723	      4.85450444	     69.79950085	     49.14275611	      0.00000000	      0.00000000	     57.96034143	    -13.60587687	     31.49325132	     73.13179453	     48.11621305	      0.00000000	      0.00000000
      2.52500000	    -23.73608857	     -1.71050938	      2.60401183	      0.35617783	      1.10192735	     -0.24195531	      0.00000000	      0.50000000	      0.00000000	      0.25000000	     41.45584179	     -4.40442502	     -1.00288647	     70.72197880	      1.23433138	      0.09308731	     -5.96576129	      0.00000000	      0.00000000	     59.94951125	     -6.80195216	      0.15564124	     59.92853651	      1.04595028	     17.85452463	      4.63714880	      0.00000000	      0.00000000	    -51.86565744	     -9.31473575	      1.17555875	     41.33934907	    -18.79587087	      6.86847457	     69.62498738	     49.44080305	      0.00000000	      0.00000000	     56.77473165	    -13.52059389	     29.51847878	     74.27928523	     48.13639501	      0.00000000	      0.00000000
      2.53000000	    -23.38694964	     -1.97870220	      2.07597208	      0.35609814	      1.10083653	     -0.24210545	      0.00000000	      0.50000000	      0.00000000	      0.25000000	     42.14525122	     -3.90460876	     -0.56306284	     73.22403070	      1.27800043	      1.38678478	     -5.68572232	      0.00000000	      0.00000000	     58.53682535	     -7.39487364	     -0.20325743	     57.98372136	      1.01200685	     16.94597733	      4.45413110	      0.00000000	      0.00000000	    -51.98256689	     -9.23636457	      1.47978947	     41.71113640	    -18.89359000	      7.46844390	     69.50230940	     49.52597104	      0.00000000	      0.00000000	     56.30702024	    -13.50819867	     29.02506626	     74.65864188	     48.16096894	      0.00000000	      0.00000000
      2.53500000	    -23.12644578	     -2.58778744	      1.60538761	      0.35607484	      1.09921692	     -0.24222482	      0.00000000	      0.50000000	      0.00000000	      0.25000000	     42.90562315	     -3.10265779	     -0.41400158	     75.69882289	      1.32119370	      2.58184983	     -5.90619251	      0.00000000	      0.00000000	     57.33273435	     -8.17427483	     -0.24664128	     56.19819420	      0.98084352	     15.81685466	      4.82528310	      0.00000000	      0.00000000	    -51.89289905	     -8.83216573	      2.07205856	     41.96759903	    -18.91037228	      7.75488619	     69.57297869	     49.57552039	      0.00000000	      0.00000000	     55.85218098	    -13.51540579	     28.81542029	     74.76120977	     48.16456446	      0.00000000	      0.00000000
      2.54000000	    -23.13859495	     -3.10013647	      0.76764534	      0.35607522	      1.09676729	     -0.24294584	      0.00000000	      0.50000000	      0.00000000	      0.25000000	     44.09299269	     -2.31607216	      0.10044387	     78.30289762	      1.36664338	      4.10126954	     -4.83964696	      0.00000000	      0.00000000	     56.35571936	     -9.06874778	     -0.55183960	     54.60392667	      0.95301830	     14.95228925	      4.69210054	      0.00000000	      0.00000000	    -51.47334910	     -8.46908621	      2.09964099	     43.09537085	    -19.25686213	     10.62664951	     68.71034309	     49.94324146	      0.00000000	      0.00000000	     53.95525361	    -13.76491418	     26.31058580	     76.55505806	     48.27582683	      0.00000000	      0.00000000
      2.54500000	    -22.83095009	     -3.62478862	      0.14630246	      0.35591517	      1.09499475	     -0.24324536	      0.00000000	      0.50000000	      0.00000000	      0.25000000	     44.91297263	     -1.53127945	      0.49312093	     80.79956160	      1.41021838	      5.39793432	     -4.17186646	      0.00000000	      0.00000000	     54.99478409	     -9.86431277	     -0.77164064	     52.86565390	      0.92267972	     14.08940639	      4.63696100	      0.00000000	      0.00000000	    -51.47431618	     -8.13366889	      2.66385118	     43.39301269	    -19.60556395	     11.57337478	     68.97738856	     50.15946195	      0.00000000	      0.00000000	     52.59690207	    -13.20208781	     24.41151604	     77.44574632	     48.25409820	      0.00000000	      0.00000000
      2.55000000	    -22.60451507	     -4.10231157	     -0.49488948	      0.35586352	      1.09290238	     -0.24373672	      0.00000000	      0.50000000	      0.00000000	      0.25000000	     45.86023135	     -0.79384098	      0.85637665	     83.32640146	      1.45432006	      6.41766067	     -3.44847664	      0.00000000	      0.00000000	     53.65893916	    -10.56326561	     -1.01732377	     51.13161687	      0.89241507	     13.19843764	      4.36817694	      0.00000000	      0.00000000	    -51.31211940	     -7.81877690	      3.28256454	     43.62526785	    -19.80874479	     12.21950661	     69.03387965	     50.25988420	      0.00000000	      0.00000000	     51.90730647	    -13.16997668	     23.92154394	     77.75344542	     48.26647538	      0.00000000	      0.00000000
      2.55500000	    -22.23868893	     -4.60908785	     -0.80642005	      0.35556949	      1.09084743	     -0.24468265	      0.00000000	      0.50000000	      0.00000000	      0.25000000	     46.65739854	     -0.29383562	      0.92665749	     85.82551491	      1.49793782	      7.68884866	     -2.97038611	      0.00000000	      0.00000000	     52.24703418	    -10.98619101	     -0.92978931	     49.43742069	      0.86284576	     12.23727105	      4.11628926	      0.00000000	      0.00000000	    -51.42624097	     -7.12416154	      3.36513909	     44.38617964	    -20.25364834	     14.07480412	     69.06717876	     50.52078535	      0.00000000	      0.00000000	     50.84621096	    -13.12907918	     22.39069236	     78.60037123	     48.27612233	      0.00000000	      0.00000000
      2.56000000	    -21.98132761	     -5.12237147	     -1.40754650	      0.35544049	      1.08829262	     -0.24514445	      0.00000000	      0.50000000	      0.00000000	      0.25000000	     47.63675674	      0.41470368	      1.16299974	     88.34898485	      1.54198068	      8.90886377	     -2.32429266	      0.00000000	      0.00000000	     50.92326151	    -11.71623526	     -1.14187059	     47.92294431	      0.83641317	     11.44125415	      4.07450407	      0.00000000	      0.00000000	    -51.24515783	     -6.70319714	      3.72617314	     45.07828182	    -20.44495551	     15.58139936	     68.73898929	     50.70032772	      0.00000000	      0.00000000	     49.78739289	    -13.18020577	     21.21870242	     79.34115174	     48.30824357	      0.00000000	      0.00000000
      2.56500000	    -21.70285937	     -5.64923911	     -2.04120064	      0.35532751	      1.08578779	     -0.24543655	      0.00000000	      0.50000000	      0.00000000	      0.25000000	     48.59556665	      1.19698882	      1.40009218	     90.76592255	      1.58416420	      9.99544684	     -1.74453589	      0.00000000	      0.00000000	     49.56042182	    -12.47784179	     -1.36497973	     46.48067154	      0.81124076	     10.58912173	      4.01711137	      0.00000000	      0.00000000	    -51.01990156	     -6.35896699	      4.45709844	     45.24504578	    -20.53266414	     16.04046247	     68.80406961	     50.77100002	      0.00000000	      0.00000000	     49.17799678	    -12.96007656	     20.72901074	     79.39681816	     48.28033379	      0.00000000	      0.00000000
      2.57000000	    -21.47638030	     -6.29703399	     -2.46291822	      0.35498449	      1.08310137	     -0.24625514	      0.00000000	      0.50000000	      0.00000000	      0.25000000	     49.64206061	      1.85299778	      1.28551904	     93.09728506	      1.62485415	     10.69775823	     -1.84214401	      0.00000000	      0.00000000	     48.31998819	    -13.11562909	     -1.22626277	     45.07429876	      0.78669492	     10.13625186	      4.04159370	      0.00000000	      0.00000000	    -50.92320859	     -5.67487532	      5.12603494	     45.49509061	    -20.55253067	     16.20851948	     68.91230109	     50.80529218	      0.00000000	      0.00000000	     48.73944191	    -12.93292862	     20.57834238	     79.40202930	     48.27293957	      0.00000000	      0.00000000
